<mxfile host="65bd71144e">
    <diagram id="sV9kp7NGZVInr88m_-wX" name="ページ1">
        <mxGraphModel dx="507" dy="427" grid="1" gridSize="10" guides="1" tooltips="1" connect="1" arrows="1" fold="1" page="1" pageScale="1" pageWidth="827" pageHeight="1169" math="0" shadow="0">
            <root>
                <mxCell id="0"/>
                <mxCell id="2" value="Domain Layer" style="locked=1;" parent="0" visible="0"/>
                <mxCell id="14" value="User" style="swimlane;fontStyle=1;align=center;verticalAlign=top;childLayout=stackLayout;horizontal=1;startSize=26;horizontalStack=0;resizeParent=1;resizeParentMax=0;resizeLast=0;collapsible=1;marginBottom=0;whiteSpace=wrap;html=1;" parent="2" vertex="1">
                    <mxGeometry x="40" y="40" width="160" height="200" as="geometry"/>
                </mxCell>
                <mxCell id="15" value="- UserId: int&lt;div&gt;- UserName: string&lt;/div&gt;&lt;div&gt;- Email: string&lt;/div&gt;&lt;div&gt;- PasswordHash: int&lt;/div&gt;&lt;div&gt;- CreatedAt: DateTime&lt;/div&gt;&lt;div&gt;- UpdateAt: DateTime&lt;/div&gt;" style="text;strokeColor=none;fillColor=none;align=left;verticalAlign=top;spacingLeft=4;spacingRight=4;overflow=hidden;rotatable=0;points=[[0,0.5],[1,0.5]];portConstraint=eastwest;whiteSpace=wrap;html=1;" parent="14" vertex="1">
                    <mxGeometry y="26" width="160" height="94" as="geometry"/>
                </mxCell>
                <mxCell id="16" value="" style="line;strokeWidth=1;fillColor=none;align=left;verticalAlign=middle;spacingTop=-1;spacingLeft=3;spacingRight=3;rotatable=0;labelPosition=right;points=[];portConstraint=eastwest;strokeColor=inherit;" parent="14" vertex="1">
                    <mxGeometry y="120" width="160" height="8" as="geometry"/>
                </mxCell>
                <mxCell id="17" value="&lt;div&gt;+ ChangeUserName()&lt;/div&gt;+ ChangePassword()&lt;div&gt;+ UpdateProfile()&lt;/div&gt;&lt;div&gt;+ UpdateLastLoginTime()&lt;/div&gt;" style="text;strokeColor=none;fillColor=none;align=left;verticalAlign=top;spacingLeft=4;spacingRight=4;overflow=hidden;rotatable=0;points=[[0,0.5],[1,0.5]];portConstraint=eastwest;whiteSpace=wrap;html=1;" parent="14" vertex="1">
                    <mxGeometry y="128" width="160" height="72" as="geometry"/>
                </mxCell>
                <mxCell id="22" value="Recipe" style="swimlane;fontStyle=1;align=center;verticalAlign=top;childLayout=stackLayout;horizontal=1;startSize=26;horizontalStack=0;resizeParent=1;resizeParentMax=0;resizeLast=0;collapsible=1;marginBottom=0;whiteSpace=wrap;html=1;" parent="2" vertex="1">
                    <mxGeometry x="230" y="40" width="180" height="400" as="geometry"/>
                </mxCell>
                <mxCell id="23" value="- RecipeId: int&lt;div&gt;&lt;font color=&quot;#000000&quot;&gt;- CreatorId: int&lt;br&gt;&lt;/font&gt;&lt;div&gt;- Title: string&lt;/div&gt;&lt;div&gt;- Description: string&lt;/div&gt;&lt;div&gt;- CookingTime: CookingTime&lt;/div&gt;&lt;div&gt;- ImageUrl: string&lt;/div&gt;&lt;div&gt;- CategoryId: Category&lt;/div&gt;&lt;/div&gt;&lt;div&gt;- IsPublished: bool&lt;/div&gt;&lt;div&gt;- CreatedAt: DateTime&lt;/div&gt;&lt;div&gt;- UpdateAt: DateTime&lt;/div&gt;&lt;div&gt;- Ingredients: List&amp;lt;Ingredient&amp;gt;&lt;/div&gt;&lt;div&gt;- Steps: List&amp;lt;Step&amp;gt;&lt;/div&gt;&lt;div&gt;- TagIds: List&amp;lt;TagId&amp;gt;&lt;/div&gt;" style="text;strokeColor=none;fillColor=none;align=left;verticalAlign=top;spacingLeft=4;spacingRight=4;overflow=hidden;rotatable=0;points=[[0,0.5],[1,0.5]];portConstraint=eastwest;whiteSpace=wrap;html=1;" parent="22" vertex="1">
                    <mxGeometry y="26" width="180" height="194" as="geometry"/>
                </mxCell>
                <mxCell id="24" value="" style="line;strokeWidth=1;fillColor=none;align=left;verticalAlign=middle;spacingTop=-1;spacingLeft=3;spacingRight=3;rotatable=0;labelPosition=right;points=[];portConstraint=eastwest;strokeColor=inherit;" parent="22" vertex="1">
                    <mxGeometry y="220" width="180" height="8" as="geometry"/>
                </mxCell>
                <mxCell id="25" value="&lt;div&gt;+ UpdateDetails()&lt;/div&gt;&lt;div&gt;+ AddIngredient()&lt;/div&gt;&lt;div&gt;+ REmoveIngredient()&lt;/div&gt;&lt;div&gt;+ UpdateIngredient()&lt;/div&gt;&lt;div&gt;+ AddStep()&lt;/div&gt;&lt;div&gt;+ RemoveStep()&lt;/div&gt;&lt;div&gt;+ UpdateStep()&lt;/div&gt;+ AddTog()&lt;div&gt;+ RemoveTag()&lt;/div&gt;&lt;div&gt;+ Publish()&lt;/div&gt;&lt;div&gt;+ Unpublish()&lt;/div&gt;" style="text;strokeColor=none;fillColor=none;align=left;verticalAlign=top;spacingLeft=4;spacingRight=4;overflow=hidden;rotatable=0;points=[[0,0.5],[1,0.5]];portConstraint=eastwest;whiteSpace=wrap;html=1;" parent="22" vertex="1">
                    <mxGeometry y="228" width="180" height="172" as="geometry"/>
                </mxCell>
                <mxCell id="26" value="Ingredient" style="swimlane;fontStyle=1;align=center;verticalAlign=top;childLayout=stackLayout;horizontal=1;startSize=26;horizontalStack=0;resizeParent=1;resizeParentMax=0;resizeLast=0;collapsible=1;marginBottom=0;whiteSpace=wrap;html=1;" parent="2" vertex="1">
                    <mxGeometry x="440" y="40" width="160" height="130" as="geometry"/>
                </mxCell>
                <mxCell id="27" value="- IngredientId: int&lt;div&gt;- Name: string&lt;/div&gt;&lt;div&gt;- Quantity: int&lt;/div&gt;" style="text;strokeColor=none;fillColor=none;align=left;verticalAlign=top;spacingLeft=4;spacingRight=4;overflow=hidden;rotatable=0;points=[[0,0.5],[1,0.5]];portConstraint=eastwest;whiteSpace=wrap;html=1;" parent="26" vertex="1">
                    <mxGeometry y="26" width="160" height="54" as="geometry"/>
                </mxCell>
                <mxCell id="28" value="" style="line;strokeWidth=1;fillColor=none;align=left;verticalAlign=middle;spacingTop=-1;spacingLeft=3;spacingRight=3;rotatable=0;labelPosition=right;points=[];portConstraint=eastwest;strokeColor=inherit;" parent="26" vertex="1">
                    <mxGeometry y="80" width="160" height="8" as="geometry"/>
                </mxCell>
                <mxCell id="29" value="&lt;div&gt;+ UpdateQuantiry()&lt;/div&gt;&lt;div&gt;+ UpdateName()&lt;/div&gt;" style="text;strokeColor=none;fillColor=none;align=left;verticalAlign=top;spacingLeft=4;spacingRight=4;overflow=hidden;rotatable=0;points=[[0,0.5],[1,0.5]];portConstraint=eastwest;whiteSpace=wrap;html=1;" parent="26" vertex="1">
                    <mxGeometry y="88" width="160" height="42" as="geometry"/>
                </mxCell>
                <mxCell id="30" value="Step" style="swimlane;fontStyle=1;align=center;verticalAlign=top;childLayout=stackLayout;horizontal=1;startSize=26;horizontalStack=0;resizeParent=1;resizeParentMax=0;resizeLast=0;collapsible=1;marginBottom=0;whiteSpace=wrap;html=1;" parent="2" vertex="1">
                    <mxGeometry x="630" y="40" width="160" height="130" as="geometry"/>
                </mxCell>
                <mxCell id="31" value="- StepId: int&lt;div&gt;- OrderNumber: int&lt;/div&gt;&lt;div&gt;- Description: string&lt;/div&gt;" style="text;strokeColor=none;fillColor=none;align=left;verticalAlign=top;spacingLeft=4;spacingRight=4;overflow=hidden;rotatable=0;points=[[0,0.5],[1,0.5]];portConstraint=eastwest;whiteSpace=wrap;html=1;" parent="30" vertex="1">
                    <mxGeometry y="26" width="160" height="54" as="geometry"/>
                </mxCell>
                <mxCell id="32" value="" style="line;strokeWidth=1;fillColor=none;align=left;verticalAlign=middle;spacingTop=-1;spacingLeft=3;spacingRight=3;rotatable=0;labelPosition=right;points=[];portConstraint=eastwest;strokeColor=inherit;" parent="30" vertex="1">
                    <mxGeometry y="80" width="160" height="8" as="geometry"/>
                </mxCell>
                <mxCell id="33" value="&lt;div&gt;+ UpdateDescription()&lt;/div&gt;&lt;div&gt;+ UpdateOrderNumber()&lt;/div&gt;" style="text;strokeColor=none;fillColor=none;align=left;verticalAlign=top;spacingLeft=4;spacingRight=4;overflow=hidden;rotatable=0;points=[[0,0.5],[1,0.5]];portConstraint=eastwest;whiteSpace=wrap;html=1;" parent="30" vertex="1">
                    <mxGeometry y="88" width="160" height="42" as="geometry"/>
                </mxCell>
                <mxCell id="34" value="Menu" style="swimlane;fontStyle=1;align=center;verticalAlign=top;childLayout=stackLayout;horizontal=1;startSize=26;horizontalStack=0;resizeParent=1;resizeParentMax=0;resizeLast=0;collapsible=1;marginBottom=0;whiteSpace=wrap;html=1;" parent="2" vertex="1">
                    <mxGeometry x="820" y="40" width="200" height="150" as="geometry"/>
                </mxCell>
                <mxCell id="35" value="- MenuId: int&lt;div&gt;- CreatorId: int&lt;/div&gt;&lt;div&gt;- MenuDate: DateOnly&lt;/div&gt;&lt;div&gt;- MenuItems: List&amp;lt;MenuItem&amp;gt;&lt;/div&gt;" style="text;strokeColor=none;fillColor=none;align=left;verticalAlign=top;spacingLeft=4;spacingRight=4;overflow=hidden;rotatable=0;points=[[0,0.5],[1,0.5]];portConstraint=eastwest;whiteSpace=wrap;html=1;" parent="34" vertex="1">
                    <mxGeometry y="26" width="200" height="64" as="geometry"/>
                </mxCell>
                <mxCell id="36" value="" style="line;strokeWidth=1;fillColor=none;align=left;verticalAlign=middle;spacingTop=-1;spacingLeft=3;spacingRight=3;rotatable=0;labelPosition=right;points=[];portConstraint=eastwest;strokeColor=inherit;" parent="34" vertex="1">
                    <mxGeometry y="90" width="200" height="8" as="geometry"/>
                </mxCell>
                <mxCell id="37" value="&lt;div&gt;+ AddMenuItem()&lt;/div&gt;&lt;div&gt;+ RemoveMenuItem()&lt;/div&gt;&lt;div&gt;+ UpdateMenuItemServingCount()&lt;/div&gt;" style="text;strokeColor=none;fillColor=none;align=left;verticalAlign=top;spacingLeft=4;spacingRight=4;overflow=hidden;rotatable=0;points=[[0,0.5],[1,0.5]];portConstraint=eastwest;whiteSpace=wrap;html=1;" parent="34" vertex="1">
                    <mxGeometry y="98" width="200" height="52" as="geometry"/>
                </mxCell>
                <mxCell id="38" value="MenuItem" style="swimlane;fontStyle=1;align=center;verticalAlign=top;childLayout=stackLayout;horizontal=1;startSize=26;horizontalStack=0;resizeParent=1;resizeParentMax=0;resizeLast=0;collapsible=1;marginBottom=0;whiteSpace=wrap;html=1;" parent="2" vertex="1">
                    <mxGeometry x="1050" y="40" width="200" height="120" as="geometry"/>
                </mxCell>
                <mxCell id="39" value="- MenuItemId: int&lt;div&gt;- Recipe: int&lt;/div&gt;&lt;div&gt;- ServingCount: int&lt;/div&gt;" style="text;strokeColor=none;fillColor=none;align=left;verticalAlign=top;spacingLeft=4;spacingRight=4;overflow=hidden;rotatable=0;points=[[0,0.5],[1,0.5]];portConstraint=eastwest;whiteSpace=wrap;html=1;" parent="38" vertex="1">
                    <mxGeometry y="26" width="200" height="54" as="geometry"/>
                </mxCell>
                <mxCell id="40" value="" style="line;strokeWidth=1;fillColor=none;align=left;verticalAlign=middle;spacingTop=-1;spacingLeft=3;spacingRight=3;rotatable=0;labelPosition=right;points=[];portConstraint=eastwest;strokeColor=inherit;" parent="38" vertex="1">
                    <mxGeometry y="80" width="200" height="8" as="geometry"/>
                </mxCell>
                <mxCell id="41" value="+ UpdateSevingCount()" style="text;strokeColor=none;fillColor=none;align=left;verticalAlign=top;spacingLeft=4;spacingRight=4;overflow=hidden;rotatable=0;points=[[0,0.5],[1,0.5]];portConstraint=eastwest;whiteSpace=wrap;html=1;" parent="38" vertex="1">
                    <mxGeometry y="88" width="200" height="32" as="geometry"/>
                </mxCell>
                <mxCell id="42" value="Category" style="swimlane;fontStyle=0;align=center;verticalAlign=top;childLayout=stackLayout;horizontal=1;startSize=26;horizontalStack=0;resizeParent=1;resizeParentMax=0;resizeLast=0;collapsible=1;marginBottom=0;whiteSpace=wrap;html=1;" parent="2" vertex="1">
                    <mxGeometry x="1280" y="40" width="140" height="110" as="geometry"/>
                </mxCell>
                <mxCell id="43" value="- CategoryId: int&lt;div&gt;- Name: string&lt;/div&gt;" style="text;strokeColor=none;fillColor=none;align=left;verticalAlign=top;spacingLeft=4;spacingRight=4;overflow=hidden;rotatable=0;points=[[0,0.5],[1,0.5]];portConstraint=eastwest;whiteSpace=wrap;html=1;" parent="42" vertex="1">
                    <mxGeometry y="26" width="140" height="44" as="geometry"/>
                </mxCell>
                <mxCell id="44" value="" style="line;strokeWidth=1;fillColor=none;align=left;verticalAlign=middle;spacingTop=-1;spacingLeft=3;spacingRight=3;rotatable=0;labelPosition=right;points=[];portConstraint=eastwest;strokeColor=inherit;" parent="42" vertex="1">
                    <mxGeometry y="70" width="140" height="8" as="geometry"/>
                </mxCell>
                <mxCell id="45" value="+ ChangeName()" style="text;strokeColor=none;fillColor=none;align=left;verticalAlign=top;spacingLeft=4;spacingRight=4;overflow=hidden;rotatable=0;points=[[0,0.5],[1,0.5]];portConstraint=eastwest;whiteSpace=wrap;html=1;" parent="42" vertex="1">
                    <mxGeometry y="78" width="140" height="32" as="geometry"/>
                </mxCell>
                <mxCell id="46" value="Tag" style="swimlane;fontStyle=0;align=center;verticalAlign=top;childLayout=stackLayout;horizontal=1;startSize=26;horizontalStack=0;resizeParent=1;resizeParentMax=0;resizeLast=0;collapsible=1;marginBottom=0;whiteSpace=wrap;html=1;" parent="2" vertex="1">
                    <mxGeometry x="1450" y="40" width="140" height="110" as="geometry"/>
                </mxCell>
                <mxCell id="47" value="- TagId: int&lt;div&gt;- Name: string&lt;/div&gt;" style="text;strokeColor=none;fillColor=none;align=left;verticalAlign=top;spacingLeft=4;spacingRight=4;overflow=hidden;rotatable=0;points=[[0,0.5],[1,0.5]];portConstraint=eastwest;whiteSpace=wrap;html=1;" parent="46" vertex="1">
                    <mxGeometry y="26" width="140" height="44" as="geometry"/>
                </mxCell>
                <mxCell id="48" value="" style="line;strokeWidth=1;fillColor=none;align=left;verticalAlign=middle;spacingTop=-1;spacingLeft=3;spacingRight=3;rotatable=0;labelPosition=right;points=[];portConstraint=eastwest;strokeColor=inherit;" parent="46" vertex="1">
                    <mxGeometry y="70" width="140" height="8" as="geometry"/>
                </mxCell>
                <mxCell id="49" value="+ ChangeName()" style="text;strokeColor=none;fillColor=none;align=left;verticalAlign=top;spacingLeft=4;spacingRight=4;overflow=hidden;rotatable=0;points=[[0,0.5],[1,0.5]];portConstraint=eastwest;whiteSpace=wrap;html=1;" parent="46" vertex="1">
                    <mxGeometry y="78" width="140" height="32" as="geometry"/>
                </mxCell>
                <mxCell id="50" value="UserId" style="swimlane;fontStyle=1;align=center;verticalAlign=top;childLayout=stackLayout;horizontal=1;startSize=26;horizontalStack=0;resizeParent=1;resizeParentMax=0;resizeLast=0;collapsible=1;marginBottom=0;whiteSpace=wrap;html=1;" parent="2" vertex="1">
                    <mxGeometry x="40" y="490" width="130" height="120" as="geometry"/>
                </mxCell>
                <mxCell id="51" value="- Value: Guid or int" style="text;strokeColor=none;fillColor=none;align=left;verticalAlign=top;spacingLeft=4;spacingRight=4;overflow=hidden;rotatable=0;points=[[0,0.5],[1,0.5]];portConstraint=eastwest;whiteSpace=wrap;html=1;" parent="50" vertex="1">
                    <mxGeometry y="26" width="130" height="24" as="geometry"/>
                </mxCell>
                <mxCell id="52" value="" style="line;strokeWidth=1;fillColor=none;align=left;verticalAlign=middle;spacingTop=-1;spacingLeft=3;spacingRight=3;rotatable=0;labelPosition=right;points=[];portConstraint=eastwest;strokeColor=inherit;" parent="50" vertex="1">
                    <mxGeometry y="50" width="130" height="8" as="geometry"/>
                </mxCell>
                <mxCell id="53" value="&lt;div&gt;+ Eqauls()&lt;/div&gt;&lt;div&gt;+ GetHashCode()&lt;/div&gt;&lt;div&gt;+ ToString()&lt;/div&gt;" style="text;strokeColor=none;fillColor=none;align=left;verticalAlign=top;spacingLeft=4;spacingRight=4;overflow=hidden;rotatable=0;points=[[0,0.5],[1,0.5]];portConstraint=eastwest;whiteSpace=wrap;html=1;" parent="50" vertex="1">
                    <mxGeometry y="58" width="130" height="62" as="geometry"/>
                </mxCell>
                <mxCell id="54" value="MenuId" style="swimlane;fontStyle=1;align=center;verticalAlign=top;childLayout=stackLayout;horizontal=1;startSize=26;horizontalStack=0;resizeParent=1;resizeParentMax=0;resizeLast=0;collapsible=1;marginBottom=0;whiteSpace=wrap;html=1;" parent="2" vertex="1">
                    <mxGeometry x="200" y="490" width="130" height="120" as="geometry"/>
                </mxCell>
                <mxCell id="55" value="- Value: Guid or int" style="text;strokeColor=none;fillColor=none;align=left;verticalAlign=top;spacingLeft=4;spacingRight=4;overflow=hidden;rotatable=0;points=[[0,0.5],[1,0.5]];portConstraint=eastwest;whiteSpace=wrap;html=1;" parent="54" vertex="1">
                    <mxGeometry y="26" width="130" height="24" as="geometry"/>
                </mxCell>
                <mxCell id="56" value="" style="line;strokeWidth=1;fillColor=none;align=left;verticalAlign=middle;spacingTop=-1;spacingLeft=3;spacingRight=3;rotatable=0;labelPosition=right;points=[];portConstraint=eastwest;strokeColor=inherit;" parent="54" vertex="1">
                    <mxGeometry y="50" width="130" height="8" as="geometry"/>
                </mxCell>
                <mxCell id="57" value="&lt;div&gt;+ Eqauls()&lt;/div&gt;&lt;div&gt;+ GetHashCode()&lt;/div&gt;&lt;div&gt;+ ToString()&lt;/div&gt;" style="text;strokeColor=none;fillColor=none;align=left;verticalAlign=top;spacingLeft=4;spacingRight=4;overflow=hidden;rotatable=0;points=[[0,0.5],[1,0.5]];portConstraint=eastwest;whiteSpace=wrap;html=1;" parent="54" vertex="1">
                    <mxGeometry y="58" width="130" height="62" as="geometry"/>
                </mxCell>
                <mxCell id="58" value="CategoryId" style="swimlane;fontStyle=1;align=center;verticalAlign=top;childLayout=stackLayout;horizontal=1;startSize=26;horizontalStack=0;resizeParent=1;resizeParentMax=0;resizeLast=0;collapsible=1;marginBottom=0;whiteSpace=wrap;html=1;" parent="2" vertex="1">
                    <mxGeometry x="360" y="490" width="130" height="120" as="geometry"/>
                </mxCell>
                <mxCell id="59" value="- Value: Guid or int" style="text;strokeColor=none;fillColor=none;align=left;verticalAlign=top;spacingLeft=4;spacingRight=4;overflow=hidden;rotatable=0;points=[[0,0.5],[1,0.5]];portConstraint=eastwest;whiteSpace=wrap;html=1;" parent="58" vertex="1">
                    <mxGeometry y="26" width="130" height="24" as="geometry"/>
                </mxCell>
                <mxCell id="60" value="" style="line;strokeWidth=1;fillColor=none;align=left;verticalAlign=middle;spacingTop=-1;spacingLeft=3;spacingRight=3;rotatable=0;labelPosition=right;points=[];portConstraint=eastwest;strokeColor=inherit;" parent="58" vertex="1">
                    <mxGeometry y="50" width="130" height="8" as="geometry"/>
                </mxCell>
                <mxCell id="61" value="&lt;div&gt;+ Eqauls()&lt;/div&gt;&lt;div&gt;+ GetHashCode()&lt;/div&gt;&lt;div&gt;+ ToString()&lt;/div&gt;" style="text;strokeColor=none;fillColor=none;align=left;verticalAlign=top;spacingLeft=4;spacingRight=4;overflow=hidden;rotatable=0;points=[[0,0.5],[1,0.5]];portConstraint=eastwest;whiteSpace=wrap;html=1;" parent="58" vertex="1">
                    <mxGeometry y="58" width="130" height="62" as="geometry"/>
                </mxCell>
                <mxCell id="62" value="RecipeId" style="swimlane;fontStyle=1;align=center;verticalAlign=top;childLayout=stackLayout;horizontal=1;startSize=26;horizontalStack=0;resizeParent=1;resizeParentMax=0;resizeLast=0;collapsible=1;marginBottom=0;whiteSpace=wrap;html=1;" parent="2" vertex="1">
                    <mxGeometry x="520" y="490" width="130" height="120" as="geometry"/>
                </mxCell>
                <mxCell id="63" value="- Value: Guid or int" style="text;strokeColor=none;fillColor=none;align=left;verticalAlign=top;spacingLeft=4;spacingRight=4;overflow=hidden;rotatable=0;points=[[0,0.5],[1,0.5]];portConstraint=eastwest;whiteSpace=wrap;html=1;" parent="62" vertex="1">
                    <mxGeometry y="26" width="130" height="24" as="geometry"/>
                </mxCell>
                <mxCell id="64" value="" style="line;strokeWidth=1;fillColor=none;align=left;verticalAlign=middle;spacingTop=-1;spacingLeft=3;spacingRight=3;rotatable=0;labelPosition=right;points=[];portConstraint=eastwest;strokeColor=inherit;" parent="62" vertex="1">
                    <mxGeometry y="50" width="130" height="8" as="geometry"/>
                </mxCell>
                <mxCell id="65" value="&lt;div&gt;+ Eqauls()&lt;/div&gt;&lt;div&gt;+ GetHashCode()&lt;/div&gt;&lt;div&gt;+ ToString()&lt;/div&gt;" style="text;strokeColor=none;fillColor=none;align=left;verticalAlign=top;spacingLeft=4;spacingRight=4;overflow=hidden;rotatable=0;points=[[0,0.5],[1,0.5]];portConstraint=eastwest;whiteSpace=wrap;html=1;" parent="62" vertex="1">
                    <mxGeometry y="58" width="130" height="62" as="geometry"/>
                </mxCell>
                <mxCell id="66" value="TagId&lt;span style=&quot;font-family: monospace; font-size: 0px; font-weight: 400; text-align: start; text-wrap-mode: nowrap;&quot;&gt;%3CmxGraphModel%3E%3Croot%3E%3CmxCell%20id%3D%220%22%2F%3E%3CmxCell%20id%3D%221%22%20parent%3D%220%22%2F%3E%3CmxCell%20id%3D%222%22%20value%3D%22RecipeId%22%20style%3D%22swimlane%3BfontStyle%3D1%3Balign%3Dcenter%3BverticalAlign%3Dtop%3BchildLayout%3DstackLayout%3Bhorizontal%3D1%3BstartSize%3D26%3BhorizontalStack%3D0%3BresizeParent%3D1%3BresizeParentMax%3D0%3BresizeLast%3D0%3Bcollapsible%3D1%3BmarginBottom%3D0%3BwhiteSpace%3Dwrap%3Bhtml%3D1%3B%22%20vertex%3D%221%22%20parent%3D%221%22%3E%3CmxGeometry%20x%3D%22810%22%20y%3D%22800%22%20width%3D%22130%22%20height%3D%22120%22%20as%3D%22geometry%22%2F%3E%3C%2FmxCell%3E%3CmxCell%20id%3D%223%22%20value%3D%22-%20Value%3A%20Guid%20or%20int%22%20style%3D%22text%3BstrokeColor%3Dnone%3BfillColor%3Dnone%3Balign%3Dleft%3BverticalAlign%3Dtop%3BspacingLeft%3D4%3BspacingRight%3D4%3Boverflow%3Dhidden%3Brotatable%3D0%3Bpoints%3D%5B%5B0%2C0.5%5D%2C%5B1%2C0.5%5D%5D%3BportConstraint%3Deastwest%3BwhiteSpace%3Dwrap%3Bhtml%3D1%3B%22%20vertex%3D%221%22%20parent%3D%222%22%3E%3CmxGeometry%20y%3D%2226%22%20width%3D%22130%22%20height%3D%2224%22%20as%3D%22geometry%22%2F%3E%3C%2FmxCell%3E%3CmxCell%20id%3D%224%22%20value%3D%22%22%20style%3D%22line%3BstrokeWidth%3D1%3BfillColor%3Dnone%3Balign%3Dleft%3BverticalAlign%3Dmiddle%3BspacingTop%3D-1%3BspacingLeft%3D3%3BspacingRight%3D3%3Brotatable%3D0%3BlabelPosition%3Dright%3Bpoints%3D%5B%5D%3BportConstraint%3Deastwest%3BstrokeColor%3Dinherit%3B%22%20vertex%3D%221%22%20parent%3D%222%22%3E%3CmxGeometry%20y%3D%2250%22%20width%3D%22130%22%20height%3D%228%22%20as%3D%22geometry%22%2F%3E%3C%2FmxCell%3E%3CmxCell%20id%3D%225%22%20value%3D%22%26lt%3Bdiv%26gt%3B%2B%20Eqauls()%26lt%3B%2Fdiv%26gt%3B%26lt%3Bdiv%26gt%3B%2B%20GetHashCode()%26lt%3B%2Fdiv%26gt%3B%26lt%3Bdiv%26gt%3B%2B%20ToString()%26lt%3B%2Fdiv%26gt%3B%22%20style%3D%22text%3BstrokeColor%3Dnone%3BfillColor%3Dnone%3Balign%3Dleft%3BverticalAlign%3Dtop%3BspacingLeft%3D4%3BspacingRight%3D4%3Boverflow%3Dhidden%3Brotatable%3D0%3Bpoints%3D%5B%5B0%2C0.5%5D%2C%5B1%2C0.5%5D%5D%3BportConstraint%3Deastwest%3BwhiteSpace%3Dwrap%3Bhtml%3D1%3B%22%20vertex%3D%221%22%20parent%3D%222%22%3E%3CmxGeometry%20y%3D%2258%22%20width%3D%22130%22%20height%3D%2262%22%20as%3D%22geometry%22%2F%3E%3C%2FmxCell%3E%3C%2Froot%3E%3C%2FmxGraphModel%3E&lt;/span&gt;" style="swimlane;fontStyle=1;align=center;verticalAlign=top;childLayout=stackLayout;horizontal=1;startSize=26;horizontalStack=0;resizeParent=1;resizeParentMax=0;resizeLast=0;collapsible=1;marginBottom=0;whiteSpace=wrap;html=1;" parent="2" vertex="1">
                    <mxGeometry x="680" y="490" width="130" height="120" as="geometry"/>
                </mxCell>
                <mxCell id="67" value="- Value: Guid or int" style="text;strokeColor=none;fillColor=none;align=left;verticalAlign=top;spacingLeft=4;spacingRight=4;overflow=hidden;rotatable=0;points=[[0,0.5],[1,0.5]];portConstraint=eastwest;whiteSpace=wrap;html=1;" parent="66" vertex="1">
                    <mxGeometry y="26" width="130" height="24" as="geometry"/>
                </mxCell>
                <mxCell id="68" value="" style="line;strokeWidth=1;fillColor=none;align=left;verticalAlign=middle;spacingTop=-1;spacingLeft=3;spacingRight=3;rotatable=0;labelPosition=right;points=[];portConstraint=eastwest;strokeColor=inherit;" parent="66" vertex="1">
                    <mxGeometry y="50" width="130" height="8" as="geometry"/>
                </mxCell>
                <mxCell id="69" value="&lt;div&gt;+ Eqauls()&lt;/div&gt;&lt;div&gt;+ GetHashCode()&lt;/div&gt;&lt;div&gt;+ ToString()&lt;/div&gt;" style="text;strokeColor=none;fillColor=none;align=left;verticalAlign=top;spacingLeft=4;spacingRight=4;overflow=hidden;rotatable=0;points=[[0,0.5],[1,0.5]];portConstraint=eastwest;whiteSpace=wrap;html=1;" parent="66" vertex="1">
                    <mxGeometry y="58" width="130" height="62" as="geometry"/>
                </mxCell>
                <mxCell id="70" value="IngredientId" style="swimlane;fontStyle=1;align=center;verticalAlign=top;childLayout=stackLayout;horizontal=1;startSize=26;horizontalStack=0;resizeParent=1;resizeParentMax=0;resizeLast=0;collapsible=1;marginBottom=0;whiteSpace=wrap;html=1;" parent="2" vertex="1">
                    <mxGeometry x="840" y="490" width="130" height="120" as="geometry"/>
                </mxCell>
                <mxCell id="71" value="- Value: Guid or int" style="text;strokeColor=none;fillColor=none;align=left;verticalAlign=top;spacingLeft=4;spacingRight=4;overflow=hidden;rotatable=0;points=[[0,0.5],[1,0.5]];portConstraint=eastwest;whiteSpace=wrap;html=1;" parent="70" vertex="1">
                    <mxGeometry y="26" width="130" height="24" as="geometry"/>
                </mxCell>
                <mxCell id="72" value="" style="line;strokeWidth=1;fillColor=none;align=left;verticalAlign=middle;spacingTop=-1;spacingLeft=3;spacingRight=3;rotatable=0;labelPosition=right;points=[];portConstraint=eastwest;strokeColor=inherit;" parent="70" vertex="1">
                    <mxGeometry y="50" width="130" height="8" as="geometry"/>
                </mxCell>
                <mxCell id="73" value="&lt;div&gt;+ Eqauls()&lt;/div&gt;&lt;div&gt;+ GetHashCode()&lt;/div&gt;&lt;div&gt;+ ToString()&lt;/div&gt;" style="text;strokeColor=none;fillColor=none;align=left;verticalAlign=top;spacingLeft=4;spacingRight=4;overflow=hidden;rotatable=0;points=[[0,0.5],[1,0.5]];portConstraint=eastwest;whiteSpace=wrap;html=1;" parent="70" vertex="1">
                    <mxGeometry y="58" width="130" height="62" as="geometry"/>
                </mxCell>
                <mxCell id="74" value="StepId" style="swimlane;fontStyle=1;align=center;verticalAlign=top;childLayout=stackLayout;horizontal=1;startSize=26;horizontalStack=0;resizeParent=1;resizeParentMax=0;resizeLast=0;collapsible=1;marginBottom=0;whiteSpace=wrap;html=1;" parent="2" vertex="1">
                    <mxGeometry x="1000" y="490" width="130" height="120" as="geometry"/>
                </mxCell>
                <mxCell id="75" value="- Value: Guid or int" style="text;strokeColor=none;fillColor=none;align=left;verticalAlign=top;spacingLeft=4;spacingRight=4;overflow=hidden;rotatable=0;points=[[0,0.5],[1,0.5]];portConstraint=eastwest;whiteSpace=wrap;html=1;" parent="74" vertex="1">
                    <mxGeometry y="26" width="130" height="24" as="geometry"/>
                </mxCell>
                <mxCell id="76" value="" style="line;strokeWidth=1;fillColor=none;align=left;verticalAlign=middle;spacingTop=-1;spacingLeft=3;spacingRight=3;rotatable=0;labelPosition=right;points=[];portConstraint=eastwest;strokeColor=inherit;" parent="74" vertex="1">
                    <mxGeometry y="50" width="130" height="8" as="geometry"/>
                </mxCell>
                <mxCell id="77" value="&lt;div&gt;+ Eqauls()&lt;/div&gt;&lt;div&gt;+ GetHashCode()&lt;/div&gt;&lt;div&gt;+ ToString()&lt;/div&gt;" style="text;strokeColor=none;fillColor=none;align=left;verticalAlign=top;spacingLeft=4;spacingRight=4;overflow=hidden;rotatable=0;points=[[0,0.5],[1,0.5]];portConstraint=eastwest;whiteSpace=wrap;html=1;" parent="74" vertex="1">
                    <mxGeometry y="58" width="130" height="62" as="geometry"/>
                </mxCell>
                <mxCell id="78" value="MenuItemId" style="swimlane;fontStyle=1;align=center;verticalAlign=top;childLayout=stackLayout;horizontal=1;startSize=26;horizontalStack=0;resizeParent=1;resizeParentMax=0;resizeLast=0;collapsible=1;marginBottom=0;whiteSpace=wrap;html=1;" parent="2" vertex="1">
                    <mxGeometry x="1160" y="490" width="130" height="120" as="geometry"/>
                </mxCell>
                <mxCell id="79" value="- Value: Guid or int" style="text;strokeColor=none;fillColor=none;align=left;verticalAlign=top;spacingLeft=4;spacingRight=4;overflow=hidden;rotatable=0;points=[[0,0.5],[1,0.5]];portConstraint=eastwest;whiteSpace=wrap;html=1;" parent="78" vertex="1">
                    <mxGeometry y="26" width="130" height="24" as="geometry"/>
                </mxCell>
                <mxCell id="80" value="" style="line;strokeWidth=1;fillColor=none;align=left;verticalAlign=middle;spacingTop=-1;spacingLeft=3;spacingRight=3;rotatable=0;labelPosition=right;points=[];portConstraint=eastwest;strokeColor=inherit;" parent="78" vertex="1">
                    <mxGeometry y="50" width="130" height="8" as="geometry"/>
                </mxCell>
                <mxCell id="81" value="&lt;div&gt;+ Eqauls()&lt;/div&gt;&lt;div&gt;+ GetHashCode()&lt;/div&gt;&lt;div&gt;+ ToString()&lt;/div&gt;" style="text;strokeColor=none;fillColor=none;align=left;verticalAlign=top;spacingLeft=4;spacingRight=4;overflow=hidden;rotatable=0;points=[[0,0.5],[1,0.5]];portConstraint=eastwest;whiteSpace=wrap;html=1;" parent="78" vertex="1">
                    <mxGeometry y="58" width="130" height="62" as="geometry"/>
                </mxCell>
                <mxCell id="82" value="CookingTime" style="swimlane;fontStyle=1;align=center;verticalAlign=top;childLayout=stackLayout;horizontal=1;startSize=26;horizontalStack=0;resizeParent=1;resizeParentMax=0;resizeLast=0;collapsible=1;marginBottom=0;whiteSpace=wrap;html=1;" parent="2" vertex="1">
                    <mxGeometry x="1320" y="490" width="130" height="130" as="geometry"/>
                </mxCell>
                <mxCell id="83" value="- Minutes: int" style="text;strokeColor=none;fillColor=none;align=left;verticalAlign=top;spacingLeft=4;spacingRight=4;overflow=hidden;rotatable=0;points=[[0,0.5],[1,0.5]];portConstraint=eastwest;whiteSpace=wrap;html=1;" parent="82" vertex="1">
                    <mxGeometry y="26" width="130" height="24" as="geometry"/>
                </mxCell>
                <mxCell id="84" value="" style="line;strokeWidth=1;fillColor=none;align=left;verticalAlign=middle;spacingTop=-1;spacingLeft=3;spacingRight=3;rotatable=0;labelPosition=right;points=[];portConstraint=eastwest;strokeColor=inherit;" parent="82" vertex="1">
                    <mxGeometry y="50" width="130" height="8" as="geometry"/>
                </mxCell>
                <mxCell id="85" value="&lt;div&gt;+ Add()&lt;/div&gt;&lt;div&gt;+ Equals()&lt;/div&gt;&lt;div&gt;+ GetHashCode()&lt;/div&gt;&lt;div&gt;+ ToString()&lt;/div&gt;" style="text;strokeColor=none;fillColor=none;align=left;verticalAlign=top;spacingLeft=4;spacingRight=4;overflow=hidden;rotatable=0;points=[[0,0.5],[1,0.5]];portConstraint=eastwest;whiteSpace=wrap;html=1;" parent="82" vertex="1">
                    <mxGeometry y="58" width="130" height="72" as="geometry"/>
                </mxCell>
                <mxCell id="86" value="Quantity" style="swimlane;fontStyle=1;align=center;verticalAlign=top;childLayout=stackLayout;horizontal=1;startSize=26;horizontalStack=0;resizeParent=1;resizeParentMax=0;resizeLast=0;collapsible=1;marginBottom=0;whiteSpace=wrap;html=1;" parent="2" vertex="1">
                    <mxGeometry x="1480" y="490" width="130" height="140" as="geometry"/>
                </mxCell>
                <mxCell id="87" value="- Value: int&lt;div&gt;- Unit: string&lt;/div&gt;" style="text;strokeColor=none;fillColor=none;align=left;verticalAlign=top;spacingLeft=4;spacingRight=4;overflow=hidden;rotatable=0;points=[[0,0.5],[1,0.5]];portConstraint=eastwest;whiteSpace=wrap;html=1;" parent="86" vertex="1">
                    <mxGeometry y="26" width="130" height="34" as="geometry"/>
                </mxCell>
                <mxCell id="88" value="" style="line;strokeWidth=1;fillColor=none;align=left;verticalAlign=middle;spacingTop=-1;spacingLeft=3;spacingRight=3;rotatable=0;labelPosition=right;points=[];portConstraint=eastwest;strokeColor=inherit;" parent="86" vertex="1">
                    <mxGeometry y="60" width="130" height="8" as="geometry"/>
                </mxCell>
                <mxCell id="89" value="&lt;div&gt;+ Add()&lt;/div&gt;&lt;div&gt;+ Equals()&lt;/div&gt;&lt;div&gt;+ GetHashCode()&lt;/div&gt;&lt;div&gt;+ ToString()&lt;/div&gt;" style="text;strokeColor=none;fillColor=none;align=left;verticalAlign=top;spacingLeft=4;spacingRight=4;overflow=hidden;rotatable=0;points=[[0,0.5],[1,0.5]];portConstraint=eastwest;whiteSpace=wrap;html=1;" parent="86" vertex="1">
                    <mxGeometry y="68" width="130" height="72" as="geometry"/>
                </mxCell>
                <mxCell id="90" value="EmailAddress" style="swimlane;fontStyle=1;align=center;verticalAlign=top;childLayout=stackLayout;horizontal=1;startSize=26;horizontalStack=0;resizeParent=1;resizeParentMax=0;resizeLast=0;collapsible=1;marginBottom=0;whiteSpace=wrap;html=1;" parent="2" vertex="1">
                    <mxGeometry x="1640" y="490" width="130" height="110" as="geometry"/>
                </mxCell>
                <mxCell id="91" value="- Value: string" style="text;strokeColor=none;fillColor=none;align=left;verticalAlign=top;spacingLeft=4;spacingRight=4;overflow=hidden;rotatable=0;points=[[0,0.5],[1,0.5]];portConstraint=eastwest;whiteSpace=wrap;html=1;" parent="90" vertex="1">
                    <mxGeometry y="26" width="130" height="24" as="geometry"/>
                </mxCell>
                <mxCell id="92" value="" style="line;strokeWidth=1;fillColor=none;align=left;verticalAlign=middle;spacingTop=-1;spacingLeft=3;spacingRight=3;rotatable=0;labelPosition=right;points=[];portConstraint=eastwest;strokeColor=inherit;" parent="90" vertex="1">
                    <mxGeometry y="50" width="130" height="8" as="geometry"/>
                </mxCell>
                <mxCell id="93" value="&lt;div&gt;&lt;span style=&quot;background-color: transparent;&quot;&gt;+ Equals()&lt;/span&gt;&lt;/div&gt;&lt;div&gt;+ GetHashCode()&lt;/div&gt;&lt;div&gt;+ ToString()&lt;/div&gt;" style="text;strokeColor=none;fillColor=none;align=left;verticalAlign=top;spacingLeft=4;spacingRight=4;overflow=hidden;rotatable=0;points=[[0,0.5],[1,0.5]];portConstraint=eastwest;whiteSpace=wrap;html=1;" parent="90" vertex="1">
                    <mxGeometry y="58" width="130" height="52" as="geometry"/>
                </mxCell>
                <mxCell id="94" value="MenuSuggestionService" style="swimlane;fontStyle=1;align=center;verticalAlign=top;childLayout=stackLayout;horizontal=1;startSize=26;horizontalStack=0;resizeParent=1;resizeParentMax=0;resizeLast=0;collapsible=1;marginBottom=0;whiteSpace=wrap;html=1;" parent="2" vertex="1">
                    <mxGeometry x="40" y="660" width="170" height="140" as="geometry"/>
                </mxCell>
                <mxCell id="95" value="- IRecipeRepository&lt;div&gt;- IINgredientRepository&lt;/div&gt;" style="text;strokeColor=none;fillColor=none;align=left;verticalAlign=top;spacingLeft=4;spacingRight=4;overflow=hidden;rotatable=0;points=[[0,0.5],[1,0.5]];portConstraint=eastwest;whiteSpace=wrap;html=1;" parent="94" vertex="1">
                    <mxGeometry y="26" width="170" height="44" as="geometry"/>
                </mxCell>
                <mxCell id="96" value="" style="line;strokeWidth=1;fillColor=none;align=left;verticalAlign=middle;spacingTop=-1;spacingLeft=3;spacingRight=3;rotatable=0;labelPosition=right;points=[];portConstraint=eastwest;strokeColor=inherit;" parent="94" vertex="1">
                    <mxGeometry y="70" width="170" height="8" as="geometry"/>
                </mxCell>
                <mxCell id="97" value="&lt;div&gt;+ SuggestWeeklyMenu()&lt;/div&gt;&lt;div&gt;+ SuggestDailyMenu()&lt;/div&gt;" style="text;strokeColor=none;fillColor=none;align=left;verticalAlign=top;spacingLeft=4;spacingRight=4;overflow=hidden;rotatable=0;points=[[0,0.5],[1,0.5]];portConstraint=eastwest;whiteSpace=wrap;html=1;" parent="94" vertex="1">
                    <mxGeometry y="78" width="170" height="62" as="geometry"/>
                </mxCell>
                <mxCell id="98" value="RecipeSearchService" style="swimlane;fontStyle=1;align=center;verticalAlign=top;childLayout=stackLayout;horizontal=1;startSize=26;horizontalStack=0;resizeParent=1;resizeParentMax=0;resizeLast=0;collapsible=1;marginBottom=0;whiteSpace=wrap;html=1;" parent="2" vertex="1">
                    <mxGeometry x="240" y="660" width="170" height="120" as="geometry"/>
                </mxCell>
                <mxCell id="99" value="- IRecipeRepository&lt;div&gt;&lt;font color=&quot;#000000&quot;&gt;- ICategoryRepository&lt;br&gt;&lt;/font&gt;&lt;div&gt;- ITagRepository&lt;/div&gt;&lt;/div&gt;" style="text;strokeColor=none;fillColor=none;align=left;verticalAlign=top;spacingLeft=4;spacingRight=4;overflow=hidden;rotatable=0;points=[[0,0.5],[1,0.5]];portConstraint=eastwest;whiteSpace=wrap;html=1;" parent="98" vertex="1">
                    <mxGeometry y="26" width="170" height="54" as="geometry"/>
                </mxCell>
                <mxCell id="100" value="" style="line;strokeWidth=1;fillColor=none;align=left;verticalAlign=middle;spacingTop=-1;spacingLeft=3;spacingRight=3;rotatable=0;labelPosition=right;points=[];portConstraint=eastwest;strokeColor=inherit;" parent="98" vertex="1">
                    <mxGeometry y="80" width="170" height="8" as="geometry"/>
                </mxCell>
                <mxCell id="101" value="&lt;div&gt;+ SearchRecipes()&lt;/div&gt;" style="text;strokeColor=none;fillColor=none;align=left;verticalAlign=top;spacingLeft=4;spacingRight=4;overflow=hidden;rotatable=0;points=[[0,0.5],[1,0.5]];portConstraint=eastwest;whiteSpace=wrap;html=1;" parent="98" vertex="1">
                    <mxGeometry y="88" width="170" height="32" as="geometry"/>
                </mxCell>
                <mxCell id="102" value="IRecipeRepository" style="swimlane;fontStyle=1;align=center;verticalAlign=top;childLayout=stackLayout;horizontal=1;startSize=26;horizontalStack=0;resizeParent=1;resizeParentMax=0;resizeLast=0;collapsible=1;marginBottom=0;whiteSpace=wrap;html=1;" parent="2" vertex="1">
                    <mxGeometry x="440" y="660" width="170" height="110" as="geometry"/>
                </mxCell>
                <mxCell id="104" value="" style="line;strokeWidth=1;fillColor=none;align=left;verticalAlign=middle;spacingTop=-1;spacingLeft=3;spacingRight=3;rotatable=0;labelPosition=right;points=[];portConstraint=eastwest;strokeColor=inherit;" parent="102" vertex="1">
                    <mxGeometry y="26" width="170" height="8" as="geometry"/>
                </mxCell>
                <mxCell id="105" value="&lt;div&gt;+ FindById()&lt;/div&gt;&lt;div&gt;+ Save()&lt;/div&gt;&lt;div&gt;+ Delete()&lt;/div&gt;&lt;div&gt;+ FindByCriteria()&lt;/div&gt;" style="text;strokeColor=none;fillColor=none;align=left;verticalAlign=top;spacingLeft=4;spacingRight=4;overflow=hidden;rotatable=0;points=[[0,0.5],[1,0.5]];portConstraint=eastwest;whiteSpace=wrap;html=1;" parent="102" vertex="1">
                    <mxGeometry y="34" width="170" height="76" as="geometry"/>
                </mxCell>
                <mxCell id="106" value="IUserRepository" style="swimlane;fontStyle=1;align=center;verticalAlign=top;childLayout=stackLayout;horizontal=1;startSize=26;horizontalStack=0;resizeParent=1;resizeParentMax=0;resizeLast=0;collapsible=1;marginBottom=0;whiteSpace=wrap;html=1;" parent="2" vertex="1">
                    <mxGeometry x="640" y="660" width="170" height="110" as="geometry"/>
                </mxCell>
                <mxCell id="107" value="" style="line;strokeWidth=1;fillColor=none;align=left;verticalAlign=middle;spacingTop=-1;spacingLeft=3;spacingRight=3;rotatable=0;labelPosition=right;points=[];portConstraint=eastwest;strokeColor=inherit;" parent="106" vertex="1">
                    <mxGeometry y="26" width="170" height="8" as="geometry"/>
                </mxCell>
                <mxCell id="108" value="&lt;div&gt;+ FindById()&lt;/div&gt;&lt;div&gt;+ FindByEmail()&lt;/div&gt;&lt;div&gt;+ Save()&lt;/div&gt;&lt;div&gt;+ Delete()&lt;/div&gt;" style="text;strokeColor=none;fillColor=none;align=left;verticalAlign=top;spacingLeft=4;spacingRight=4;overflow=hidden;rotatable=0;points=[[0,0.5],[1,0.5]];portConstraint=eastwest;whiteSpace=wrap;html=1;" parent="106" vertex="1">
                    <mxGeometry y="34" width="170" height="76" as="geometry"/>
                </mxCell>
                <mxCell id="109" value="IMenuRepository" style="swimlane;fontStyle=1;align=center;verticalAlign=top;childLayout=stackLayout;horizontal=1;startSize=26;horizontalStack=0;resizeParent=1;resizeParentMax=0;resizeLast=0;collapsible=1;marginBottom=0;whiteSpace=wrap;html=1;" parent="2" vertex="1">
                    <mxGeometry x="840" y="660" width="170" height="110" as="geometry"/>
                </mxCell>
                <mxCell id="110" value="" style="line;strokeWidth=1;fillColor=none;align=left;verticalAlign=middle;spacingTop=-1;spacingLeft=3;spacingRight=3;rotatable=0;labelPosition=right;points=[];portConstraint=eastwest;strokeColor=inherit;" parent="109" vertex="1">
                    <mxGeometry y="26" width="170" height="8" as="geometry"/>
                </mxCell>
                <mxCell id="111" value="&lt;div&gt;+ FindById()&lt;/div&gt;&lt;div&gt;+ FindByCreatorId()&lt;/div&gt;&lt;div&gt;+ Save()&lt;/div&gt;&lt;div&gt;+ Delete()&lt;/div&gt;" style="text;strokeColor=none;fillColor=none;align=left;verticalAlign=top;spacingLeft=4;spacingRight=4;overflow=hidden;rotatable=0;points=[[0,0.5],[1,0.5]];portConstraint=eastwest;whiteSpace=wrap;html=1;" parent="109" vertex="1">
                    <mxGeometry y="34" width="170" height="76" as="geometry"/>
                </mxCell>
                <mxCell id="112" value="ICategoryRepository" style="swimlane;fontStyle=1;align=center;verticalAlign=top;childLayout=stackLayout;horizontal=1;startSize=26;horizontalStack=0;resizeParent=1;resizeParentMax=0;resizeLast=0;collapsible=1;marginBottom=0;whiteSpace=wrap;html=1;" parent="2" vertex="1">
                    <mxGeometry x="1040" y="660" width="170" height="90" as="geometry"/>
                </mxCell>
                <mxCell id="113" value="" style="line;strokeWidth=1;fillColor=none;align=left;verticalAlign=middle;spacingTop=-1;spacingLeft=3;spacingRight=3;rotatable=0;labelPosition=right;points=[];portConstraint=eastwest;strokeColor=inherit;" parent="112" vertex="1">
                    <mxGeometry y="26" width="170" height="8" as="geometry"/>
                </mxCell>
                <mxCell id="114" value="&lt;div&gt;+ FindAll()&lt;/div&gt;&lt;div&gt;+ FindById()&lt;/div&gt;&lt;div&gt;+ Save()&lt;/div&gt;" style="text;strokeColor=none;fillColor=none;align=left;verticalAlign=top;spacingLeft=4;spacingRight=4;overflow=hidden;rotatable=0;points=[[0,0.5],[1,0.5]];portConstraint=eastwest;whiteSpace=wrap;html=1;" parent="112" vertex="1">
                    <mxGeometry y="34" width="170" height="56" as="geometry"/>
                </mxCell>
                <mxCell id="115" value="ITagRepository" style="swimlane;fontStyle=1;align=center;verticalAlign=top;childLayout=stackLayout;horizontal=1;startSize=26;horizontalStack=0;resizeParent=1;resizeParentMax=0;resizeLast=0;collapsible=1;marginBottom=0;whiteSpace=wrap;html=1;" parent="2" vertex="1">
                    <mxGeometry x="1241" y="660" width="170" height="90" as="geometry"/>
                </mxCell>
                <mxCell id="116" value="" style="line;strokeWidth=1;fillColor=none;align=left;verticalAlign=middle;spacingTop=-1;spacingLeft=3;spacingRight=3;rotatable=0;labelPosition=right;points=[];portConstraint=eastwest;strokeColor=inherit;" parent="115" vertex="1">
                    <mxGeometry y="26" width="170" height="8" as="geometry"/>
                </mxCell>
                <mxCell id="117" value="&lt;div&gt;+ FindAll()&lt;/div&gt;&lt;div&gt;+ FindById()&lt;/div&gt;&lt;div&gt;+ Save()&lt;/div&gt;" style="text;strokeColor=none;fillColor=none;align=left;verticalAlign=top;spacingLeft=4;spacingRight=4;overflow=hidden;rotatable=0;points=[[0,0.5],[1,0.5]];portConstraint=eastwest;whiteSpace=wrap;html=1;" parent="115" vertex="1">
                    <mxGeometry y="34" width="170" height="56" as="geometry"/>
                </mxCell>
                <mxCell id="3" value="Application Layer" style="locked=1;" parent="0" visible="0"/>
                <mxCell id="118" value="UserApplicationService" style="swimlane;fontStyle=1;align=center;verticalAlign=top;childLayout=stackLayout;horizontal=1;startSize=26;horizontalStack=0;resizeParent=1;resizeParentMax=0;resizeLast=0;collapsible=1;marginBottom=0;whiteSpace=wrap;html=1;" parent="3" vertex="1">
                    <mxGeometry x="40" y="40" width="320" height="130" as="geometry"/>
                </mxCell>
                <mxCell id="119" value="- IUserRepository" style="text;strokeColor=none;fillColor=none;align=left;verticalAlign=top;spacingLeft=4;spacingRight=4;overflow=hidden;rotatable=0;points=[[0,0.5],[1,0.5]];portConstraint=eastwest;whiteSpace=wrap;html=1;" parent="118" vertex="1">
                    <mxGeometry y="26" width="320" height="24" as="geometry"/>
                </mxCell>
                <mxCell id="120" value="" style="line;strokeWidth=1;fillColor=none;align=left;verticalAlign=middle;spacingTop=-1;spacingLeft=3;spacingRight=3;rotatable=0;labelPosition=right;points=[];portConstraint=eastwest;strokeColor=inherit;" parent="118" vertex="1">
                    <mxGeometry y="50" width="320" height="8" as="geometry"/>
                </mxCell>
                <mxCell id="121" value="&lt;div&gt;+ RegisterUser(ResisterUserDto dto)&lt;/div&gt;&lt;div&gt;+ AuthenticateUser(LoginDto dto)&lt;/div&gt;&lt;div&gt;+ UpdateUserProfile(UpdateUserDto dto)&lt;/div&gt;&lt;div&gt;+ ChangeUserPassword(ChangePasswordDto dto)&lt;/div&gt;" style="text;strokeColor=none;fillColor=none;align=left;verticalAlign=top;spacingLeft=4;spacingRight=4;overflow=hidden;rotatable=0;points=[[0,0.5],[1,0.5]];portConstraint=eastwest;whiteSpace=wrap;html=1;" parent="118" vertex="1">
                    <mxGeometry y="58" width="320" height="72" as="geometry"/>
                </mxCell>
                <mxCell id="123" value="RecipeApplicationService" style="swimlane;fontStyle=1;align=center;verticalAlign=top;childLayout=stackLayout;horizontal=1;startSize=26;horizontalStack=0;resizeParent=1;resizeParentMax=0;resizeLast=0;collapsible=1;marginBottom=0;whiteSpace=wrap;html=1;" parent="3" vertex="1">
                    <mxGeometry x="390" y="40" width="320" height="220" as="geometry"/>
                </mxCell>
                <mxCell id="124" value="- IRecipeRepository&lt;div&gt;&lt;span style=&quot;color: rgb(0, 0, 0);&quot;&gt;- IUserRepository&lt;/span&gt;&lt;/div&gt;&lt;div&gt;&lt;span style=&quot;color: rgb(0, 0, 0);&quot;&gt;- ICategoryRepository&lt;/span&gt;&lt;span style=&quot;color: rgb(0, 0, 0);&quot;&gt;&lt;/span&gt;&lt;/div&gt;&lt;div&gt;&lt;span style=&quot;color: rgb(0, 0, 0);&quot;&gt;&lt;span style=&quot;color: rgb(0, 0, 0);&quot;&gt;- ITagRepository&lt;/span&gt;&lt;/span&gt;&lt;/div&gt;&lt;div&gt;&lt;span style=&quot;color: rgb(0, 0, 0);&quot;&gt;&lt;span style=&quot;color: rgb(0, 0, 0);&quot;&gt;- RecipeSearchService&lt;/span&gt;&lt;/span&gt;&lt;/div&gt;" style="text;strokeColor=none;fillColor=none;align=left;verticalAlign=top;spacingLeft=4;spacingRight=4;overflow=hidden;rotatable=0;points=[[0,0.5],[1,0.5]];portConstraint=eastwest;whiteSpace=wrap;html=1;" parent="123" vertex="1">
                    <mxGeometry y="26" width="320" height="84" as="geometry"/>
                </mxCell>
                <mxCell id="125" value="" style="line;strokeWidth=1;fillColor=none;align=left;verticalAlign=middle;spacingTop=-1;spacingLeft=3;spacingRight=3;rotatable=0;labelPosition=right;points=[];portConstraint=eastwest;strokeColor=inherit;" parent="123" vertex="1">
                    <mxGeometry y="110" width="320" height="8" as="geometry"/>
                </mxCell>
                <mxCell id="126" value="&lt;div&gt;+ RegisterRecipe(ResisterRecipeDto dto)&lt;/div&gt;&lt;div&gt;+ GetRecipeDetail(RecipeId id)&lt;/div&gt;&lt;div&gt;+ UpdateRecipe(UpdateRecipeDto dto)&lt;/div&gt;&lt;div&gt;+ DeleteRecipe(RecipeId id)&lt;/div&gt;&lt;div&gt;+ PublishRecipe(RecipeId id)&lt;/div&gt;&lt;div&gt;+ SearchRecipes(RecipeSearchCriteraDto criteriaDto)&lt;/div&gt;" style="text;strokeColor=none;fillColor=none;align=left;verticalAlign=top;spacingLeft=4;spacingRight=4;overflow=hidden;rotatable=0;points=[[0,0.5],[1,0.5]];portConstraint=eastwest;whiteSpace=wrap;html=1;" parent="123" vertex="1">
                    <mxGeometry y="118" width="320" height="102" as="geometry"/>
                </mxCell>
                <mxCell id="127" value="MenuApplicationService" style="swimlane;fontStyle=1;align=center;verticalAlign=top;childLayout=stackLayout;horizontal=1;startSize=26;horizontalStack=0;resizeParent=1;resizeParentMax=0;resizeLast=0;collapsible=1;marginBottom=0;whiteSpace=wrap;html=1;" parent="3" vertex="1">
                    <mxGeometry x="40" y="280" width="340" height="160" as="geometry"/>
                </mxCell>
                <mxCell id="128" value="- IMenuRepository&lt;div&gt;- IRecipeRepository&lt;/div&gt;&lt;div&gt;- MenuSuggestionService&lt;/div&gt;" style="text;strokeColor=none;fillColor=none;align=left;verticalAlign=top;spacingLeft=4;spacingRight=4;overflow=hidden;rotatable=0;points=[[0,0.5],[1,0.5]];portConstraint=eastwest;whiteSpace=wrap;html=1;" parent="127" vertex="1">
                    <mxGeometry y="26" width="340" height="54" as="geometry"/>
                </mxCell>
                <mxCell id="129" value="" style="line;strokeWidth=1;fillColor=none;align=left;verticalAlign=middle;spacingTop=-1;spacingLeft=3;spacingRight=3;rotatable=0;labelPosition=right;points=[];portConstraint=eastwest;strokeColor=inherit;" parent="127" vertex="1">
                    <mxGeometry y="80" width="340" height="8" as="geometry"/>
                </mxCell>
                <mxCell id="130" value="&lt;div&gt;+ SuggestMenu(MenuSuggestionRequestDto dto)&lt;/div&gt;&lt;div&gt;+ SaveMenu(SaveMenuDto dto)&lt;/div&gt;&lt;div&gt;+ GetMenu(MenuId id)&lt;/div&gt;&lt;div&gt;+ GetWeeklyMenus(UserId userId, DateTime weekStartDate)&lt;/div&gt;" style="text;strokeColor=none;fillColor=none;align=left;verticalAlign=top;spacingLeft=4;spacingRight=4;overflow=hidden;rotatable=0;points=[[0,0.5],[1,0.5]];portConstraint=eastwest;whiteSpace=wrap;html=1;" parent="127" vertex="1">
                    <mxGeometry y="88" width="340" height="72" as="geometry"/>
                </mxCell>
                <mxCell id="131" value="RegisterUserDto" style="swimlane;fontStyle=1;align=center;verticalAlign=top;childLayout=stackLayout;horizontal=1;startSize=26;horizontalStack=0;resizeParent=1;resizeParentMax=0;resizeLast=0;collapsible=1;marginBottom=0;whiteSpace=wrap;html=1;" parent="3" vertex="1">
                    <mxGeometry x="40" y="480" width="120" height="34" as="geometry"/>
                </mxCell>
                <mxCell id="133" value="" style="line;strokeWidth=1;fillColor=none;align=left;verticalAlign=middle;spacingTop=-1;spacingLeft=3;spacingRight=3;rotatable=0;labelPosition=right;points=[];portConstraint=eastwest;strokeColor=inherit;" parent="131" vertex="1">
                    <mxGeometry y="26" width="120" height="8" as="geometry"/>
                </mxCell>
                <mxCell id="136" value="LoginDto" style="swimlane;fontStyle=1;align=center;verticalAlign=top;childLayout=stackLayout;horizontal=1;startSize=26;horizontalStack=0;resizeParent=1;resizeParentMax=0;resizeLast=0;collapsible=1;marginBottom=0;whiteSpace=wrap;html=1;" parent="3" vertex="1">
                    <mxGeometry x="190" y="480" width="90" height="34" as="geometry"/>
                </mxCell>
                <mxCell id="137" value="" style="line;strokeWidth=1;fillColor=none;align=left;verticalAlign=middle;spacingTop=-1;spacingLeft=3;spacingRight=3;rotatable=0;labelPosition=right;points=[];portConstraint=eastwest;strokeColor=inherit;" parent="136" vertex="1">
                    <mxGeometry y="26" width="90" height="8" as="geometry"/>
                </mxCell>
                <mxCell id="138" value="UpdateUserDto" style="swimlane;fontStyle=1;align=center;verticalAlign=top;childLayout=stackLayout;horizontal=1;startSize=26;horizontalStack=0;resizeParent=1;resizeParentMax=0;resizeLast=0;collapsible=1;marginBottom=0;whiteSpace=wrap;html=1;" parent="3" vertex="1">
                    <mxGeometry x="310" y="480" width="110" height="34" as="geometry"/>
                </mxCell>
                <mxCell id="139" value="" style="line;strokeWidth=1;fillColor=none;align=left;verticalAlign=middle;spacingTop=-1;spacingLeft=3;spacingRight=3;rotatable=0;labelPosition=right;points=[];portConstraint=eastwest;strokeColor=inherit;" parent="138" vertex="1">
                    <mxGeometry y="26" width="110" height="8" as="geometry"/>
                </mxCell>
                <mxCell id="140" value="ChangePasswordDto" style="swimlane;fontStyle=1;align=center;verticalAlign=top;childLayout=stackLayout;horizontal=1;startSize=26;horizontalStack=0;resizeParent=1;resizeParentMax=0;resizeLast=0;collapsible=1;marginBottom=0;whiteSpace=wrap;html=1;" parent="3" vertex="1">
                    <mxGeometry x="450" y="480" width="140" height="34" as="geometry"/>
                </mxCell>
                <mxCell id="141" value="" style="line;strokeWidth=1;fillColor=none;align=left;verticalAlign=middle;spacingTop=-1;spacingLeft=3;spacingRight=3;rotatable=0;labelPosition=right;points=[];portConstraint=eastwest;strokeColor=inherit;" parent="140" vertex="1">
                    <mxGeometry y="26" width="140" height="8" as="geometry"/>
                </mxCell>
                <mxCell id="142" value="RegisterRecipeDto" style="swimlane;fontStyle=1;align=center;verticalAlign=top;childLayout=stackLayout;horizontal=1;startSize=26;horizontalStack=0;resizeParent=1;resizeParentMax=0;resizeLast=0;collapsible=1;marginBottom=0;whiteSpace=wrap;html=1;" parent="3" vertex="1">
                    <mxGeometry x="620" y="480" width="140" height="34" as="geometry"/>
                </mxCell>
                <mxCell id="143" value="" style="line;strokeWidth=1;fillColor=none;align=left;verticalAlign=middle;spacingTop=-1;spacingLeft=3;spacingRight=3;rotatable=0;labelPosition=right;points=[];portConstraint=eastwest;strokeColor=inherit;" parent="142" vertex="1">
                    <mxGeometry y="26" width="140" height="8" as="geometry"/>
                </mxCell>
                <mxCell id="144" value="UpdateRecipeDto&lt;span style=&quot;font-family: monospace; font-size: 0px; font-weight: 400; text-align: start; text-wrap-mode: nowrap;&quot;&gt;%3CmxGraphModel%3E%3Croot%3E%3CmxCell%20id%3D%220%22%2F%3E%3CmxCell%20id%3D%221%22%20parent%3D%220%22%2F%3E%3CmxCell%20id%3D%222%22%20value%3D%22RegisterUserDto%22%20style%3D%22swimlane%3BfontStyle%3D1%3Balign%3Dcenter%3BverticalAlign%3Dtop%3BchildLayout%3DstackLayout%3Bhorizontal%3D1%3BstartSize%3D26%3BhorizontalStack%3D0%3BresizeParent%3D1%3BresizeParentMax%3D0%3BresizeLast%3D0%3Bcollapsible%3D1%3BmarginBottom%3D0%3BwhiteSpace%3Dwrap%3Bhtml%3D1%3B%22%20vertex%3D%221%22%20parent%3D%221%22%3E%3CmxGeometry%20x%3D%2240%22%20y%3D%22480%22%20width%3D%22120%22%20height%3D%2234%22%20as%3D%22geometry%22%2F%3E%3C%2FmxCell%3E%3CmxCell%20id%3D%223%22%20value%3D%22%22%20style%3D%22line%3BstrokeWidth%3D1%3BfillColor%3Dnone%3Balign%3Dleft%3BverticalAlign%3Dmiddle%3BspacingTop%3D-1%3BspacingLeft%3D3%3BspacingRight%3D3%3Brotatable%3D0%3BlabelPosition%3Dright%3Bpoints%3D%5B%5D%3BportConstraint%3Deastwest%3BstrokeColor%3Dinherit%3B%22%20vertex%3D%221%22%20parent%3D%222%22%3E%3CmxGeometry%20y%3D%2226%22%20width%3D%22120%22%20height%3D%228%22%20as%3D%22geometry%22%2F%3E%3C%2FmxCell%3E%3C%2Froot%3E%3C%2FmxGraphModel%3E&lt;/span&gt;" style="swimlane;fontStyle=1;align=center;verticalAlign=top;childLayout=stackLayout;horizontal=1;startSize=26;horizontalStack=0;resizeParent=1;resizeParentMax=0;resizeLast=0;collapsible=1;marginBottom=0;whiteSpace=wrap;html=1;" parent="3" vertex="1">
                    <mxGeometry x="40" y="540" width="120" height="34" as="geometry"/>
                </mxCell>
                <mxCell id="145" value="" style="line;strokeWidth=1;fillColor=none;align=left;verticalAlign=middle;spacingTop=-1;spacingLeft=3;spacingRight=3;rotatable=0;labelPosition=right;points=[];portConstraint=eastwest;strokeColor=inherit;" parent="144" vertex="1">
                    <mxGeometry y="26" width="120" height="8" as="geometry"/>
                </mxCell>
                <mxCell id="146" value="RecipeDetailDto" style="swimlane;fontStyle=1;align=center;verticalAlign=top;childLayout=stackLayout;horizontal=1;startSize=26;horizontalStack=0;resizeParent=1;resizeParentMax=0;resizeLast=0;collapsible=1;marginBottom=0;whiteSpace=wrap;html=1;" parent="3" vertex="1">
                    <mxGeometry x="190" y="540" width="120" height="34" as="geometry"/>
                </mxCell>
                <mxCell id="147" value="" style="line;strokeWidth=1;fillColor=none;align=left;verticalAlign=middle;spacingTop=-1;spacingLeft=3;spacingRight=3;rotatable=0;labelPosition=right;points=[];portConstraint=eastwest;strokeColor=inherit;" parent="146" vertex="1">
                    <mxGeometry y="26" width="120" height="8" as="geometry"/>
                </mxCell>
                <mxCell id="148" value="RecipeSummaryDto" style="swimlane;fontStyle=1;align=center;verticalAlign=top;childLayout=stackLayout;horizontal=1;startSize=26;horizontalStack=0;resizeParent=1;resizeParentMax=0;resizeLast=0;collapsible=1;marginBottom=0;whiteSpace=wrap;html=1;" parent="3" vertex="1">
                    <mxGeometry x="340" y="540" width="120" height="34" as="geometry"/>
                </mxCell>
                <mxCell id="149" value="" style="line;strokeWidth=1;fillColor=none;align=left;verticalAlign=middle;spacingTop=-1;spacingLeft=3;spacingRight=3;rotatable=0;labelPosition=right;points=[];portConstraint=eastwest;strokeColor=inherit;" parent="148" vertex="1">
                    <mxGeometry y="26" width="120" height="8" as="geometry"/>
                </mxCell>
                <mxCell id="150" value="RecipeSearchCriteriaDto" style="swimlane;fontStyle=1;align=center;verticalAlign=top;childLayout=stackLayout;horizontal=1;startSize=26;horizontalStack=0;resizeParent=1;resizeParentMax=0;resizeLast=0;collapsible=1;marginBottom=0;whiteSpace=wrap;html=1;" parent="3" vertex="1">
                    <mxGeometry x="490" y="540" width="150" height="34" as="geometry">
                        <mxRectangle x="490" y="540" width="170" height="30" as="alternateBounds"/>
                    </mxGeometry>
                </mxCell>
                <mxCell id="151" value="" style="line;strokeWidth=1;fillColor=none;align=left;verticalAlign=middle;spacingTop=-1;spacingLeft=3;spacingRight=3;rotatable=0;labelPosition=right;points=[];portConstraint=eastwest;strokeColor=inherit;" parent="150" vertex="1">
                    <mxGeometry y="26" width="150" height="8" as="geometry"/>
                </mxCell>
                <mxCell id="152" value="MenuSuggestionRequestDto" style="swimlane;fontStyle=1;align=center;verticalAlign=top;childLayout=stackLayout;horizontal=1;startSize=26;horizontalStack=0;resizeParent=1;resizeParentMax=0;resizeLast=0;collapsible=1;marginBottom=0;whiteSpace=wrap;html=1;" parent="3" vertex="1">
                    <mxGeometry x="40" y="600" width="180" height="34" as="geometry"/>
                </mxCell>
                <mxCell id="153" value="" style="line;strokeWidth=1;fillColor=none;align=left;verticalAlign=middle;spacingTop=-1;spacingLeft=3;spacingRight=3;rotatable=0;labelPosition=right;points=[];portConstraint=eastwest;strokeColor=inherit;" parent="152" vertex="1">
                    <mxGeometry y="26" width="180" height="8" as="geometry"/>
                </mxCell>
                <mxCell id="154" value="SuggestedMenuDto" style="swimlane;fontStyle=1;align=center;verticalAlign=top;childLayout=stackLayout;horizontal=1;startSize=26;horizontalStack=0;resizeParent=1;resizeParentMax=0;resizeLast=0;collapsible=1;marginBottom=0;whiteSpace=wrap;html=1;" parent="3" vertex="1">
                    <mxGeometry x="250" y="600" width="150" height="34" as="geometry"/>
                </mxCell>
                <mxCell id="155" value="" style="line;strokeWidth=1;fillColor=none;align=left;verticalAlign=middle;spacingTop=-1;spacingLeft=3;spacingRight=3;rotatable=0;labelPosition=right;points=[];portConstraint=eastwest;strokeColor=inherit;" parent="154" vertex="1">
                    <mxGeometry y="26" width="150" height="8" as="geometry"/>
                </mxCell>
                <mxCell id="156" value="SaveMenuDto" style="swimlane;fontStyle=1;align=center;verticalAlign=top;childLayout=stackLayout;horizontal=1;startSize=26;horizontalStack=0;resizeParent=1;resizeParentMax=0;resizeLast=0;collapsible=1;marginBottom=0;whiteSpace=wrap;html=1;" parent="3" vertex="1">
                    <mxGeometry x="430" y="600" width="130" height="34" as="geometry"/>
                </mxCell>
                <mxCell id="157" value="" style="line;strokeWidth=1;fillColor=none;align=left;verticalAlign=middle;spacingTop=-1;spacingLeft=3;spacingRight=3;rotatable=0;labelPosition=right;points=[];portConstraint=eastwest;strokeColor=inherit;" parent="156" vertex="1">
                    <mxGeometry y="26" width="130" height="8" as="geometry"/>
                </mxCell>
                <mxCell id="158" value="SaveMenuDto" style="swimlane;fontStyle=1;align=center;verticalAlign=top;childLayout=stackLayout;horizontal=1;startSize=26;horizontalStack=0;resizeParent=1;resizeParentMax=0;resizeLast=0;collapsible=1;marginBottom=0;whiteSpace=wrap;html=1;" parent="3" vertex="1">
                    <mxGeometry x="590" y="600" width="130" height="34" as="geometry"/>
                </mxCell>
                <mxCell id="159" value="" style="line;strokeWidth=1;fillColor=none;align=left;verticalAlign=middle;spacingTop=-1;spacingLeft=3;spacingRight=3;rotatable=0;labelPosition=right;points=[];portConstraint=eastwest;strokeColor=inherit;" parent="158" vertex="1">
                    <mxGeometry y="26" width="130" height="8" as="geometry"/>
                </mxCell>
                <mxCell id="4" value="Infrastructure Layer" style="" parent="0"/>
                <mxCell id="164" value="LoginForm" style="swimlane;fontStyle=1;align=center;verticalAlign=top;childLayout=stackLayout;horizontal=1;startSize=26;horizontalStack=0;resizeParent=1;resizeParentMax=0;resizeLast=0;collapsible=1;marginBottom=0;whiteSpace=wrap;html=1;" parent="4" vertex="1">
                    <mxGeometry x="10" y="10" width="270" height="140" as="geometry"/>
                </mxCell>
                <mxCell id="165" value="- userService: UserApplicationService&lt;div&gt;- usernameTextBox: TextBox&lt;/div&gt;&lt;div&gt;- passwordTextBox TextBox&lt;/div&gt;&lt;div&gt;- loginButton: Button&lt;/div&gt;" style="text;strokeColor=none;fillColor=none;align=left;verticalAlign=top;spacingLeft=4;spacingRight=4;overflow=hidden;rotatable=0;points=[[0,0.5],[1,0.5]];portConstraint=eastwest;whiteSpace=wrap;html=1;" parent="164" vertex="1">
                    <mxGeometry y="26" width="270" height="64" as="geometry"/>
                </mxCell>
                <mxCell id="166" value="" style="line;strokeWidth=1;fillColor=none;align=left;verticalAlign=middle;spacingTop=-1;spacingLeft=3;spacingRight=3;rotatable=0;labelPosition=right;points=[];portConstraint=eastwest;strokeColor=inherit;" parent="164" vertex="1">
                    <mxGeometry y="90" width="270" height="8" as="geometry"/>
                </mxCell>
                <mxCell id="167" value="+ loginButton_Click(object sender, EventArgs e)&lt;div&gt;+ RegisterLink_Click()&lt;/div&gt;" style="text;strokeColor=none;fillColor=none;align=left;verticalAlign=top;spacingLeft=4;spacingRight=4;overflow=hidden;rotatable=0;points=[[0,0.5],[1,0.5]];portConstraint=eastwest;whiteSpace=wrap;html=1;" parent="164" vertex="1">
                    <mxGeometry y="98" width="270" height="42" as="geometry"/>
                </mxCell>
                <mxCell id="204" value="MainForm" style="swimlane;fontStyle=1;align=center;verticalAlign=top;childLayout=stackLayout;horizontal=1;startSize=26;horizontalStack=0;resizeParent=1;resizeParentMax=0;resizeLast=0;collapsible=1;marginBottom=0;whiteSpace=wrap;html=1;" vertex="1" parent="4">
                    <mxGeometry x="310" y="10" width="270" height="170" as="geometry"/>
                </mxCell>
                <mxCell id="205" value="- recipeListButton: Button&lt;div&gt;- newRecipeButton: Button&lt;/div&gt;&lt;div&gt;- menuSuggestionButton: Button&lt;/div&gt;&lt;div&gt;- userProfileButton: Button&lt;/div&gt;" style="text;strokeColor=none;fillColor=none;align=left;verticalAlign=top;spacingLeft=4;spacingRight=4;overflow=hidden;rotatable=0;points=[[0,0.5],[1,0.5]];portConstraint=eastwest;whiteSpace=wrap;html=1;" vertex="1" parent="204">
                    <mxGeometry y="26" width="270" height="64" as="geometry"/>
                </mxCell>
                <mxCell id="206" value="" style="line;strokeWidth=1;fillColor=none;align=left;verticalAlign=middle;spacingTop=-1;spacingLeft=3;spacingRight=3;rotatable=0;labelPosition=right;points=[];portConstraint=eastwest;strokeColor=inherit;" vertex="1" parent="204">
                    <mxGeometry y="90" width="270" height="8" as="geometry"/>
                </mxCell>
                <mxCell id="207" value="+ recipeListButton_Click()&lt;div&gt;+ newRecipeButton_Click()&lt;/div&gt;&lt;div&gt;+ menuSuggestionButton_Click()&lt;/div&gt;&lt;div&gt;+ userProfileButton_Click()&lt;/div&gt;" style="text;strokeColor=none;fillColor=none;align=left;verticalAlign=top;spacingLeft=4;spacingRight=4;overflow=hidden;rotatable=0;points=[[0,0.5],[1,0.5]];portConstraint=eastwest;whiteSpace=wrap;html=1;" vertex="1" parent="204">
                    <mxGeometry y="98" width="270" height="72" as="geometry"/>
                </mxCell>
                <mxCell id="208" value="RecipeListForm" style="swimlane;fontStyle=1;align=center;verticalAlign=top;childLayout=stackLayout;horizontal=1;startSize=26;horizontalStack=0;resizeParent=1;resizeParentMax=0;resizeLast=0;collapsible=1;marginBottom=0;whiteSpace=wrap;html=1;" vertex="1" parent="4">
                    <mxGeometry x="10" y="200" width="270" height="190" as="geometry"/>
                </mxCell>
                <mxCell id="209" value="- recipeService: RecipeApplicationService&lt;div&gt;- recipeDataGridView: DataGridView&lt;/div&gt;&lt;div&gt;- searchKeywordTextBox: TextBox&lt;/div&gt;&lt;div&gt;- SearchButton: Button&lt;/div&gt;&lt;div&gt;- categoryComboBox: ComboBox&lt;/div&gt;" style="text;strokeColor=none;fillColor=none;align=left;verticalAlign=top;spacingLeft=4;spacingRight=4;overflow=hidden;rotatable=0;points=[[0,0.5],[1,0.5]];portConstraint=eastwest;whiteSpace=wrap;html=1;" vertex="1" parent="208">
                    <mxGeometry y="26" width="270" height="84" as="geometry"/>
                </mxCell>
                <mxCell id="210" value="" style="line;strokeWidth=1;fillColor=none;align=left;verticalAlign=middle;spacingTop=-1;spacingLeft=3;spacingRight=3;rotatable=0;labelPosition=right;points=[];portConstraint=eastwest;strokeColor=inherit;" vertex="1" parent="208">
                    <mxGeometry y="110" width="270" height="8" as="geometry"/>
                </mxCell>
                <mxCell id="211" value="+ RecipeListForm_Load()&lt;div&gt;+ SearchButton_Click()&lt;/div&gt;&lt;div&gt;+ RecipeDataGridView_CellDoubleClick()&lt;/div&gt;&lt;div&gt;+ userProfileButton_Click()&lt;/div&gt;" style="text;strokeColor=none;fillColor=none;align=left;verticalAlign=top;spacingLeft=4;spacingRight=4;overflow=hidden;rotatable=0;points=[[0,0.5],[1,0.5]];portConstraint=eastwest;whiteSpace=wrap;html=1;" vertex="1" parent="208">
                    <mxGeometry y="118" width="270" height="72" as="geometry"/>
                </mxCell>
                <mxCell id="212" value="RecipeEditForm" style="swimlane;fontStyle=1;align=center;verticalAlign=top;childLayout=stackLayout;horizontal=1;startSize=26;horizontalStack=0;resizeParent=1;resizeParentMax=0;resizeLast=0;collapsible=1;marginBottom=0;whiteSpace=wrap;html=1;" vertex="1" parent="4">
                    <mxGeometry x="310" y="200" width="270" height="240" as="geometry"/>
                </mxCell>
                <mxCell id="213" value="- recipeService: RecipeApplicationService&lt;div&gt;&lt;font color=&quot;#000000&quot;&gt;- titleTextBox: TextBox&lt;br&gt;&lt;/font&gt;&lt;div&gt;- descriptionTextBox: TextBox&lt;/div&gt;&lt;div&gt;- cookingTimeMinutesTextBox: TextBox&lt;/div&gt;&lt;div&gt;- ingredientsDataGridView: DataGridView&lt;/div&gt;&lt;div&gt;&lt;span style=&quot;color: rgb(63, 63, 63);&quot;&gt;- stepsDataGridView: DataGridView&lt;/span&gt;&lt;/div&gt;&lt;div&gt;- saveButton: Button&lt;/div&gt;&lt;div&gt;&lt;span style=&quot;color: rgb(63, 63, 63);&quot;&gt;- deleteButton: Button&lt;/span&gt;&lt;/div&gt;&lt;div&gt;- currentRecipeId: RecipeId&lt;/div&gt;&lt;/div&gt;" style="text;strokeColor=none;fillColor=none;align=left;verticalAlign=top;spacingLeft=4;spacingRight=4;overflow=hidden;rotatable=0;points=[[0,0.5],[1,0.5]];portConstraint=eastwest;whiteSpace=wrap;html=1;" vertex="1" parent="212">
                    <mxGeometry y="26" width="270" height="134" as="geometry"/>
                </mxCell>
                <mxCell id="214" value="" style="line;strokeWidth=1;fillColor=none;align=left;verticalAlign=middle;spacingTop=-1;spacingLeft=3;spacingRight=3;rotatable=0;labelPosition=right;points=[];portConstraint=eastwest;strokeColor=inherit;" vertex="1" parent="212">
                    <mxGeometry y="160" width="270" height="8" as="geometry"/>
                </mxCell>
                <mxCell id="215" value="+ RecipeEditForm_Load()&lt;div&gt;+ SaveButton_Click()&lt;/div&gt;&lt;div&gt;+ DeleteButton_Click()&lt;/div&gt;&lt;div&gt;+ AddIngredientButton_Click()&lt;/div&gt;" style="text;strokeColor=none;fillColor=none;align=left;verticalAlign=top;spacingLeft=4;spacingRight=4;overflow=hidden;rotatable=0;points=[[0,0.5],[1,0.5]];portConstraint=eastwest;whiteSpace=wrap;html=1;" vertex="1" parent="212">
                    <mxGeometry y="168" width="270" height="72" as="geometry"/>
                </mxCell>
                <mxCell id="216" value="MenuSuggestionForm" style="swimlane;fontStyle=1;align=center;verticalAlign=top;childLayout=stackLayout;horizontal=1;startSize=26;horizontalStack=0;resizeParent=1;resizeParentMax=0;resizeLast=0;collapsible=1;marginBottom=0;whiteSpace=wrap;html=1;" vertex="1" parent="4">
                    <mxGeometry x="10" y="480" width="270" height="160" as="geometry"/>
                </mxCell>
                <mxCell id="217" value="- menuService: MenuApplicationService&lt;div&gt;&lt;div&gt;- suggestedMenuDataGridView: DataGridView&lt;/div&gt;&lt;div&gt;&lt;span style=&quot;color: rgb(63, 63, 63);&quot;&gt;- startDatePicker: DateTimePicker&lt;/span&gt;&lt;/div&gt;&lt;div&gt;- suggestButton: Button&lt;/div&gt;&lt;div&gt;&lt;span style=&quot;color: rgb(63, 63, 63);&quot;&gt;- saveMenuButton: Button&lt;/span&gt;&lt;/div&gt;&lt;/div&gt;" style="text;strokeColor=none;fillColor=none;align=left;verticalAlign=top;spacingLeft=4;spacingRight=4;overflow=hidden;rotatable=0;points=[[0,0.5],[1,0.5]];portConstraint=eastwest;whiteSpace=wrap;html=1;" vertex="1" parent="216">
                    <mxGeometry y="26" width="270" height="84" as="geometry"/>
                </mxCell>
                <mxCell id="218" value="" style="line;strokeWidth=1;fillColor=none;align=left;verticalAlign=middle;spacingTop=-1;spacingLeft=3;spacingRight=3;rotatable=0;labelPosition=right;points=[];portConstraint=eastwest;strokeColor=inherit;" vertex="1" parent="216">
                    <mxGeometry y="110" width="270" height="8" as="geometry"/>
                </mxCell>
                <mxCell id="219" value="&lt;div&gt;+ SuggestionButton_Click()&lt;/div&gt;&lt;div&gt;+ SaveMenuButton_Click()&lt;/div&gt;" style="text;strokeColor=none;fillColor=none;align=left;verticalAlign=top;spacingLeft=4;spacingRight=4;overflow=hidden;rotatable=0;points=[[0,0.5],[1,0.5]];portConstraint=eastwest;whiteSpace=wrap;html=1;" vertex="1" parent="216">
                    <mxGeometry y="118" width="270" height="42" as="geometry"/>
                </mxCell>
                <mxCell id="220" value="UserProfileForm" style="swimlane;fontStyle=1;align=center;verticalAlign=top;childLayout=stackLayout;horizontal=1;startSize=26;horizontalStack=0;resizeParent=1;resizeParentMax=0;resizeLast=0;collapsible=1;marginBottom=0;whiteSpace=wrap;html=1;" vertex="1" parent="4">
                    <mxGeometry x="310" y="480" width="270" height="180" as="geometry"/>
                </mxCell>
                <mxCell id="221" value="- userService: UserApplicationService&lt;div&gt;&lt;div&gt;- usernameTextBox: TextBox&lt;/div&gt;&lt;div&gt;&lt;span style=&quot;color: rgb(63, 63, 63);&quot;&gt;- emailTextBox: TextBox&lt;/span&gt;&lt;/div&gt;&lt;div&gt;- updateProfileButton: Button&lt;/div&gt;&lt;div&gt;&lt;span style=&quot;color: rgb(63, 63, 63);&quot;&gt;- changePasswordButton: Button&lt;/span&gt;&lt;/div&gt;&lt;/div&gt;" style="text;strokeColor=none;fillColor=none;align=left;verticalAlign=top;spacingLeft=4;spacingRight=4;overflow=hidden;rotatable=0;points=[[0,0.5],[1,0.5]];portConstraint=eastwest;whiteSpace=wrap;html=1;" vertex="1" parent="220">
                    <mxGeometry y="26" width="270" height="84" as="geometry"/>
                </mxCell>
                <mxCell id="222" value="" style="line;strokeWidth=1;fillColor=none;align=left;verticalAlign=middle;spacingTop=-1;spacingLeft=3;spacingRight=3;rotatable=0;labelPosition=right;points=[];portConstraint=eastwest;strokeColor=inherit;" vertex="1" parent="220">
                    <mxGeometry y="110" width="270" height="8" as="geometry"/>
                </mxCell>
                <mxCell id="223" value="&lt;div&gt;+ UserProFileForm_Load()&lt;/div&gt;&lt;div&gt;+ UpdateProfileButton_Click()&lt;/div&gt;&lt;div&gt;+ ChangePasswordButton_Click()&lt;/div&gt;" style="text;strokeColor=none;fillColor=none;align=left;verticalAlign=top;spacingLeft=4;spacingRight=4;overflow=hidden;rotatable=0;points=[[0,0.5],[1,0.5]];portConstraint=eastwest;whiteSpace=wrap;html=1;" vertex="1" parent="220">
                    <mxGeometry y="118" width="270" height="62" as="geometry"/>
                </mxCell>
                <mxCell id="5" value="Presentation Layer" style="locked=1;" parent="0"/>
            </root>
        </mxGraphModel>
    </diagram>
</mxfile>